# xmcd
#
# Track frame offsets: 
#        150
#        12989
#        24182
#        36710
#        48045
#        58919
#        74969
#        91517
#        102767
#        117515
#        128233
#        138013
#
# Disc length: 1991 seconds
#
# Revision: 0
# Processed by: cddbd v1.5.2PL0 Copyright (c) Steve Scherf et al.
# Submitted via: ExactAudioCopy v0.95b4
#
DISCID=a207c50c
DTITLE=Audie Blaylock and Redline - Audie Blaylock and Redline
DYEAR=2009
DGENRE=Bluegrass
TTITLE0=Whispering Waters
TTITLE1=Two Lonley Hearts
TTITLE2=My Darlings Last Goodbye
TTITLE3=Lonsome Weary Heart
TTITLE4=You'll Never Be The Same
TTITLE5=Send Me Your Address From Heaven
TTITLE6=My Blue Eyed Darling
TTITLE7=Lonely River
TTITLE8=Goodbye
TTITLE9=Roll On Blues
TTITLE10=Who'll Sing For Me ?
TTITLE11=Mountain Laurel In Bloom
EXTD=
EXTT0=
EXTT1=
EXTT2=
EXTT3=
EXTT4=
EXTT5=
EXTT6=
EXTT7=
EXTT8=
EXTT9=
EXTT10=
EXTT11=
PLAYORDER=
